<mxfile host="app.diagrams.net" modified="2023-07-19T12:56:41.777Z" agent="Mozilla/5.0 (Windows NT 10.0; Win64; x64) AppleWebKit/537.36 (KHTML, like Gecko) Chrome/114.0.0.0 Safari/537.36" etag="-ZWDYu7lB_oqPOCqrrXg" version="21.5.0" type="github">
  <diagram name="第 1 页" id="L8ZCrId86UIUJhBQzHBy">
    <mxGraphModel dx="677" dy="353" grid="1" gridSize="10" guides="1" tooltips="1" connect="1" arrows="1" fold="1" page="1" pageScale="1" pageWidth="827" pageHeight="1169" math="0" shadow="0">
      <root>
        <mxCell id="0" />
        <mxCell id="1" parent="0" />
        <mxCell id="fAKyNClEuvAhxEzox4LH-3" value="" style="edgeStyle=orthogonalEdgeStyle;rounded=0;orthogonalLoop=1;jettySize=auto;html=1;" edge="1" parent="1" source="fAKyNClEuvAhxEzox4LH-1" target="fAKyNClEuvAhxEzox4LH-2">
          <mxGeometry relative="1" as="geometry" />
        </mxCell>
        <mxCell id="fAKyNClEuvAhxEzox4LH-10" value="" style="edgeStyle=orthogonalEdgeStyle;rounded=0;orthogonalLoop=1;jettySize=auto;html=1;" edge="1" parent="1" source="fAKyNClEuvAhxEzox4LH-1" target="fAKyNClEuvAhxEzox4LH-9">
          <mxGeometry relative="1" as="geometry" />
        </mxCell>
        <mxCell id="fAKyNClEuvAhxEzox4LH-1" value="核心 小类目key N(桌子，桌垫)" style="whiteSpace=wrap;html=1;aspect=fixed;" vertex="1" parent="1">
          <mxGeometry x="200" y="175" width="80" height="80" as="geometry" />
        </mxCell>
        <mxCell id="fAKyNClEuvAhxEzox4LH-2" value="该类目下商品集合" style="whiteSpace=wrap;html=1;aspect=fixed;" vertex="1" parent="1">
          <mxGeometry x="360" y="175" width="80" height="80" as="geometry" />
        </mxCell>
        <mxCell id="fAKyNClEuvAhxEzox4LH-6" style="edgeStyle=orthogonalEdgeStyle;rounded=0;orthogonalLoop=1;jettySize=auto;html=1;entryX=0;entryY=0.5;entryDx=0;entryDy=0;" edge="1" parent="1" source="fAKyNClEuvAhxEzox4LH-4" target="fAKyNClEuvAhxEzox4LH-1">
          <mxGeometry relative="1" as="geometry" />
        </mxCell>
        <mxCell id="fAKyNClEuvAhxEzox4LH-4" value="选市场" style="whiteSpace=wrap;html=1;aspect=fixed;" vertex="1" parent="1">
          <mxGeometry x="10" y="175" width="80" height="80" as="geometry" />
        </mxCell>
        <mxCell id="fAKyNClEuvAhxEzox4LH-7" value="选择类目节点" style="text;html=1;align=center;verticalAlign=middle;resizable=0;points=[];autosize=1;strokeColor=none;fillColor=none;" vertex="1" parent="1">
          <mxGeometry x="90" y="200" width="100" height="30" as="geometry" />
        </mxCell>
        <mxCell id="fAKyNClEuvAhxEzox4LH-8" value="搜索" style="text;html=1;align=center;verticalAlign=middle;resizable=0;points=[];autosize=1;strokeColor=none;fillColor=none;" vertex="1" parent="1">
          <mxGeometry x="290" y="200" width="50" height="30" as="geometry" />
        </mxCell>
        <mxCell id="fAKyNClEuvAhxEzox4LH-12" value="" style="edgeStyle=orthogonalEdgeStyle;rounded=0;orthogonalLoop=1;jettySize=auto;html=1;" edge="1" parent="1" source="fAKyNClEuvAhxEzox4LH-9" target="fAKyNClEuvAhxEzox4LH-11">
          <mxGeometry relative="1" as="geometry" />
        </mxCell>
        <mxCell id="fAKyNClEuvAhxEzox4LH-9" value="每个类目下商品集合构成子市场组成一行" style="whiteSpace=wrap;html=1;aspect=fixed;" vertex="1" parent="1">
          <mxGeometry x="200" y="335" width="80" height="80" as="geometry" />
        </mxCell>
        <mxCell id="fAKyNClEuvAhxEzox4LH-11" value="可查看该市场的垄断度和 小类 BSR 、搜索值。月销量" style="whiteSpace=wrap;html=1;" vertex="1" parent="1">
          <mxGeometry x="20" y="345" width="120" height="60" as="geometry" />
        </mxCell>
      </root>
    </mxGraphModel>
  </diagram>
</mxfile>
